<svg width="50" height="50" viewBox="0 0 50 50" fill="none" xmlns="http://www.w3.org/2000/svg">
<circle cx="25" cy="25" r="25" fill="#0049AC"/>
<path fill-rule="evenodd" clip-rule="evenodd" d="M25.5 16C26.4389 16 27.2 16.7611 27.2 17.7V22.8H32.3C33.2389 22.8 34 23.5611 34 24.5C34 25.4389 33.2389 26.2 32.3 26.2H27.2V31.3C27.2 32.2389 26.4389 33 25.5 33C24.5611 33 23.8 32.2389 23.8 31.3V26.2H18.7C17.7611 26.2 17 25.4389 17 24.5C17 23.5611 17.7611 22.8 18.7 22.8H23.8V17.7C23.8 16.7611 24.5611 16 25.5 16Z" fill="white"/>
</svg>
